<svg width="284" height="82" viewBox="0 0 284 82" fill="none" xmlns="http://www.w3.org/2000/svg">
<path d="M118.056 58.824C118.056 59.552 118 60.588 117.888 61.932H82.692C83.308 65.236 84.904 67.868 87.48 69.828C90.112 71.732 93.36 72.684 97.224 72.684C102.152 72.684 106.212 71.06 109.404 67.812L115.032 74.28C113.016 76.688 110.468 78.508 107.388 79.74C104.308 80.972 100.836 81.588 96.972 81.588C92.044 81.588 87.704 80.608 83.952 78.648C80.2 76.688 77.288 73.972 75.216 70.5C73.2 66.972 72.192 62.996 72.192 58.572C72.192 54.204 73.172 50.284 75.132 46.812C77.148 43.284 79.92 40.54 83.448 38.58C86.976 36.62 90.952 35.64 95.376 35.64C99.744 35.64 103.636 36.62 107.052 38.58C110.524 40.484 113.212 43.2 115.116 46.728C117.076 50.2 118.056 54.232 118.056 58.824ZM95.376 44.04C92.016 44.04 89.16 45.048 86.808 47.064C84.512 49.024 83.112 51.656 82.608 54.96H108.06C107.612 51.712 106.24 49.08 103.944 47.064C101.648 45.048 98.792 44.04 95.376 44.04ZM135.198 42.696C138.222 37.992 143.542 35.64 151.158 35.64V45.636C150.262 45.468 149.45 45.384 148.722 45.384C144.634 45.384 141.442 46.588 139.146 48.996C136.85 51.348 135.702 54.764 135.702 59.244V81H125.202V36.144H135.198V42.696ZM177.295 81.588C172.647 81.588 168.475 80.608 164.779 78.648C161.083 76.688 158.199 73.972 156.127 70.5C154.055 66.972 153.019 62.996 153.019 58.572C153.019 54.148 154.055 50.2 156.127 46.728C158.199 43.256 161.055 40.54 164.695 38.58C168.391 36.62 172.591 35.64 177.295 35.64C181.719 35.64 185.583 36.536 188.887 38.328C192.247 40.12 194.767 42.696 196.447 46.056L188.383 50.76C187.095 48.688 185.471 47.148 183.511 46.14C181.607 45.076 179.507 44.544 177.211 44.544C173.291 44.544 170.043 45.832 167.467 48.408C164.891 50.928 163.603 54.316 163.603 58.572C163.603 62.828 164.863 66.244 167.383 68.82C169.959 71.34 173.235 72.6 177.211 72.6C179.507 72.6 181.607 72.096 183.511 71.088C185.471 70.024 187.095 68.456 188.383 66.384L196.447 71.088C194.711 74.448 192.163 77.052 188.803 78.9C185.499 80.692 181.663 81.588 177.295 81.588ZM244.095 58.824C244.095 59.552 244.039 60.588 243.927 61.932H208.731C209.347 65.236 210.943 67.868 213.519 69.828C216.151 71.732 219.399 72.684 223.263 72.684C228.191 72.684 232.251 71.06 235.443 67.812L241.071 74.28C239.055 76.688 236.507 78.508 233.427 79.74C230.347 80.972 226.875 81.588 223.011 81.588C218.083 81.588 213.743 80.608 209.991 78.648C206.239 76.688 203.327 73.972 201.255 70.5C199.239 66.972 198.231 62.996 198.231 58.572C198.231 54.204 199.211 50.284 201.171 46.812C203.187 43.284 205.959 40.54 209.487 38.58C213.015 36.62 216.991 35.64 221.415 35.64C225.783 35.64 229.675 36.62 233.091 38.58C236.563 40.484 239.251 43.2 241.155 46.728C243.115 50.2 244.095 54.232 244.095 58.824ZM221.415 44.04C218.055 44.04 215.199 45.048 212.847 47.064C210.551 49.024 209.151 51.656 208.647 54.96H234.099C233.651 51.712 232.279 49.08 229.983 47.064C227.687 45.048 224.831 44.04 221.415 44.04ZM261.237 42.696C264.261 37.992 269.581 35.64 277.197 35.64V45.636C276.301 45.468 275.489 45.384 274.761 45.384C270.673 45.384 267.481 46.588 265.185 48.996C262.889 51.348 261.741 54.764 261.741 59.244V81H251.241V36.144H261.237V42.696Z" fill="url(#paint0_linear_8:230)"/>
<line x1="6.5" y1="3" x2="6.5" y2="53" stroke="url(#paint1_linear_8:230)" stroke-width="13"/>
<line x1="59.5" y1="3" x2="59.5" y2="53" stroke="url(#paint2_linear_8:230)" stroke-width="13"/>
<line y1="-6.5" x2="41.4005" y2="-6.5" transform="matrix(0.797092 0.603858 -0.392026 0.919954 0 53)" stroke="url(#paint3_linear_8:230)" stroke-width="13"/>
<line y1="-6.5" x2="41.4005" y2="-6.5" transform="matrix(-0.797092 0.603858 0.392026 0.919954 66 53)" stroke="url(#paint4_linear_8:230)" stroke-width="13"/>
<line x1="34.5617" y1="7.95217" x2="19.5617" y2="19.9522" stroke="url(#paint5_linear_8:230)" stroke-width="5"/>
<line y1="-2.5" x2="16" y2="-2.5" transform="matrix(0.780869 0.624695 0.624695 -0.780869 33 6)" stroke="url(#paint6_linear_8:230)" stroke-width="5"/>
<line y1="-2.5" x2="19.2094" y2="-2.5" transform="matrix(0.780869 0.624695 0.624695 -0.780869 21 38)" stroke="#7CB1FF" stroke-width="5"/>
<line x1="44.0556" y1="41.9522" x2="31.5617" y2="51.9473" stroke="#7CB1FF" stroke-width="5"/>
<line x1="20.5" y1="18" x2="20.5" y2="42" stroke="#7CB1FF" stroke-width="5"/>
<circle cx="33.5" cy="28.5" r="5.5" fill="url(#paint7_linear_8:230)"/>
<line x1="33.5" y1="31.5" x2="33.5" y2="35.5" stroke="url(#paint8_linear_8:230)" stroke-width="5" stroke-linecap="round"/>
<defs>
<linearGradient id="paint0_linear_8:230" x1="168.858" y1="55.4921" x2="168.143" y2="9.02727" gradientUnits="userSpaceOnUse">
<stop offset="0.00961538" stop-color="#7CB1FF"/>
<stop offset="0.9999" stop-color="#0066FF"/>
<stop offset="1" stop-color="#0066FF"/>
</linearGradient>
<linearGradient id="paint1_linear_8:230" x1="13" y1="46.5" x2="14" y2="-17.5" gradientUnits="userSpaceOnUse">
<stop stop-color="#7CB1FF"/>
<stop offset="0.9999" stop-color="#0066FF"/>
<stop offset="1" stop-opacity="0"/>
</linearGradient>
<linearGradient id="paint2_linear_8:230" x1="53" y1="41" x2="53" y2="-13" gradientUnits="userSpaceOnUse">
<stop stop-color="#7CB1FF"/>
<stop offset="1" stop-color="#0066FF"/>
<stop offset="1" stop-opacity="0"/>
</linearGradient>
<linearGradient id="paint3_linear_8:230" x1="20.7002" y1="0" x2="20.7002" y2="1" gradientUnits="userSpaceOnUse">
<stop stop-color="#7CB1FF"/>
<stop offset="1" stop-opacity="0"/>
<stop offset="1" stop-color="#0066FF"/>
</linearGradient>
<linearGradient id="paint4_linear_8:230" x1="20.7002" y1="0" x2="20.7002" y2="1" gradientUnits="userSpaceOnUse">
<stop stop-color="#7CB1FF"/>
<stop offset="1" stop-opacity="0"/>
<stop offset="1" stop-color="#0066FF"/>
</linearGradient>
<linearGradient id="paint5_linear_8:230" x1="27.5" y1="19.5" x2="25" y2="8.5" gradientUnits="userSpaceOnUse">
<stop offset="0.193428" stop-color="#7CB1FF"/>
<stop offset="1" stop-color="#0066FF"/>
</linearGradient>
<linearGradient id="paint6_linear_8:230" x1="11.5569" y1="-8.04295" x2="3.98243" y2="3.82625" gradientUnits="userSpaceOnUse">
<stop stop-color="#7CB1FF"/>
<stop offset="1" stop-color="#0066FF"/>
</linearGradient>
<linearGradient id="paint7_linear_8:230" x1="33.5" y1="23" x2="33.5" y2="34" gradientUnits="userSpaceOnUse">
<stop stop-color="#0066FF"/>
<stop offset="0.979167" stop-color="#7CB1FF"/>
</linearGradient>
<linearGradient id="paint8_linear_8:230" x1="29.5" y1="33" x2="28.5" y2="23.5" gradientUnits="userSpaceOnUse">
<stop stop-color="#7CB1FF"/>
<stop offset="1" stop-color="#0066FF"/>
</linearGradient>
</defs>
</svg>
